inDegrees=yes
name=ik_Xsens_4_quaternion
DataType=double
version=3
OpenSimVersion=4.4-2022-07-23-0e9fedc
endheader
time	r_shoulder_elev	r_elbow_flex
11.98333333333333	-109.8287979345075	115.9952667306213
12	-109.8616193108728	116.0185384940823
12.01666666666667	-109.89472764736	115.9859997471323
12.03333333333333	-109.9481431412703	115.9593325988333
12.05	-109.9914495829198	115.9159917296914
12.06666666666667	-110.0725140475004	115.9424717119369
12.08333333333333	-110.1956865334303	116.0354305421194
12.1	-110.2987431104666	116.1014669082856
12.11666666666667	-110.3757750556121	116.1455579293479
12.13333333333333	-110.4389333241616	116.1697277937902
12.15	-110.5119902470385	116.2627634285741
12.16666666666667	-110.5628707714373	116.3626584566648
12.18333333333333	-110.5812443124597	116.4028553268169
12.2	-110.6286710981635	116.5102264421229
12.21666666666667	-110.7011270893037	116.6547480138568
12.23333333333333	-110.8024181402575	116.8014623425363
12.25	-110.9303835874499	116.9760315069691
12.26666666666667	-111.0453028110285	117.1005923377577
12.28333333333333	-111.1444866825673	117.2272630691457
12.3	-111.2028464326861	117.353722103559
12.31666666666667	-111.2107118184888	117.4086822058584
12.33333333333333	-111.2358804728001	117.4665093570457
12.35	-111.2896545217859	117.555983932262
12.36666666666667	-111.2832548661433	117.6187195242811
12.38333333333333	-111.2429705349722	117.6588447737999
12.4	-111.1821746949563	117.6900780208725
12.41666666666667	-111.1362053999916	117.6904876580218
12.43333333333333	-111.1748974758898	117.7555683560526
12.45	-111.2643162531022	117.8742418671669
12.46666666666667	-111.3332131893033	117.9754234262807
12.48333333333333	-111.3353160866023	118.0362576806867
12.5	-111.3291607698986	118.0711779300777
12.51666666666667	-111.34200399914	118.1466532931152
12.53333333333333	-111.3775478821536	118.2611589515364
12.55	-111.4108619021148	118.4195857650149
12.56666666666667	-111.3611661429111	118.4691243210695
12.58333333333333	-111.230649334069	118.4015273913137
12.6	-111.1380599337541	118.3810431623342
12.61666666666667	-111.1641438393103	118.4615034561313
12.63333333333333	-111.2955272362326	118.6643860439355
12.65	-111.4588396478613	118.8904898709845
12.66666666666667	-111.625972424931	119.1400208720291
12.68333333333333	-111.7324244276725	119.3607309660077
12.7	-111.8029994777373	119.5409881795897
12.71666666666667	-111.9218174072406	119.8349999998672
12.73333333333333	-112.0399477381735	120.1645119360083
12.75	-112.1404374982156	120.4399998399311
12.76666666666667	-112.2284088651963	120.650414080782
12.78333333333333	-112.3344561993332	120.8645354459307
12.8	-112.4448385312277	121.0939306798843
12.81666666666667	-112.5844865322663	121.3038466601054
12.83333333333333	-112.7038469611258	121.4924050266846
12.85	-112.7880654887826	121.6477115273409
12.86666666666667	-112.8053278466646	121.7405959089568
12.88333333333333	-112.781456566997	121.7643804038622
12.9	-112.76579429326	121.780387494089
12.91666666666667	-112.799871496707	121.8418387323788
12.93333333333333	-112.836556649879	121.9077889338012
12.95	-112.8342859646592	121.93785996623
12.96666666666667	-112.8200368723837	121.9119405649143
12.98333333333333	-112.8092451477235	121.8640460546829
13	-112.7872197104617	121.8232492131697
13.01666666666667	-112.7798735149974	121.7915018130619
13.03333333333333	-112.754627072323	121.7436888191308
13.05	-112.7213063298052	121.7258357147379
13.06666666666667	-112.6772391894554	121.7695391778883
13.08333333333333	-112.6595472064276	121.8541434979608
13.1	-112.7433141090641	122.0344468672415
13.11666666666667	-112.8749917343946	122.2576386843317
13.13333333333333	-113.0283881790491	122.5147589971394
13.15	-113.1700885650965	122.7386099629795
13.16666666666667	-113.329612771148	122.9071144873794
13.18333333333333	-113.5035248416686	123.101494922116
13.2	-113.6300142519741	123.2091181603798
13.21666666666667	-113.7145391148154	123.2812311307581
13.23333333333333	-113.7505803999568	123.2976466303353
13.25	-113.7421811442878	123.3069024048459
13.26666666666667	-113.7268495984062	123.322627095066
13.28333333333333	-113.7259151092142	123.3234087286479
13.3	-113.7278074578808	123.321434483124
13.31666666666667	-113.7086659331076	123.2926670507545
13.33333333333333	-113.6460115913298	123.1966191650365
13.35	-113.5680516932338	123.0860530348721
13.36666666666667	-113.5382025657103	123.0340310687412
13.38333333333333	-113.5748582151082	123.0489799621858
13.4	-113.6544875504894	123.0901226766263
13.41666666666667	-113.7406631296825	123.1494098078027
13.43333333333333	-113.7916759078975	123.1643672691367
13.45	-113.8066246031944	123.1492171732872
13.46666666666667	-113.8290542486232	123.1714501353039
13.48333333333333	-113.9246566347955	123.2850261152775
13.5	-114.0515529856304	123.4425115208042
13.51666666666667	-114.1440969278033	123.5726989195558
13.53333333333333	-114.1517960244471	123.6084103702282
13.55	-114.1094247671322	123.5539458908265
13.56666666666667	-114.0840085547111	123.4930398184566
13.58333333333333	-114.1088003347721	123.4683479677945
13.6	-114.1654183678259	123.4718988465045
13.61666666666667	-114.1910000969024	123.4458198912781
13.63333333333333	-114.1614367168668	123.4002266143619
13.65	-114.1581672283108	123.3940899372618
13.66666666666667	-114.1834080261436	123.4254676460367
13.68333333333333	-114.2239263845507	123.4812400036955
13.7	-114.2171447022282	123.4866063855153
13.71666666666667	-114.0901125829805	123.3531949426684
13.73333333333333	-113.9381803915994	123.1778789563509
13.75	-113.7819646354646	123.0321624781503
13.76666666666667	-113.693512991116	122.9567605565614
13.78333333333333	-113.6408389360007	122.9109641173988
13.8	-113.6230193035401	122.8603241199207
13.81666666666667	-113.6647922250372	122.8775620872667
13.83333333333333	-113.7074307419949	122.9135606433943
13.85	-113.7056911349383	122.9139471765077
13.86666666666667	-113.6493725292968	122.8404763700638
13.88333333333333	-113.6590433984298	122.830415226991
13.9	-113.701029307084	122.8570551392701
13.91666666666667	-113.7151561382511	122.8443115246586
13.93333333333333	-113.7436913904074	122.8692956274346
13.95	-113.7462121138077	122.8659383009704
13.96666666666667	-113.7015304221228	122.8138394339092
13.98333333333333	-113.659499272165	122.7479346203423
14	-113.6552559834406	122.7069663937398
14.01666666666667	-113.6733657760728	122.690035001264
14.03333333333333	-113.684632502841	122.6796083108539
14.05	-113.6548521076279	122.6171001435101
14.06666666666667	-113.5982443758615	122.5230348184587
14.08333333333333	-113.5660007150394	122.4594446353924
14.1	-113.5665823107992	122.4583220107158
14.11666666666667	-113.556020732334	122.4676190831243
14.13333333333333	-113.4875245391745	122.4323879851862
14.15	-113.4112828482847	122.4117762339488
14.16666666666667	-113.3510506355311	122.3866928605778
14.18333333333333	-113.3307396568138	122.4072675922978
14.2	-113.3286032213952	122.4546060075352
14.21666666666667	-113.3148064276881	122.5207232201931
14.23333333333333	-113.2821884754858	122.5520790457074
14.25	-113.1968127581042	122.499730102181
14.26666666666667	-113.1232929300351	122.4468415702695
14.28333333333333	-113.0658975246198	122.4054031890215
14.3	-113.0452014620654	122.4242367864789
14.31666666666667	-112.993226229182	122.4288214649458
14.33333333333333	-112.9725911323312	122.4483416413188
14.35	-112.9500434156922	122.4706887957152
14.36666666666667	-112.9345586851453	122.4867200972114
14.38333333333333	-112.9213557195896	122.5002438586744
14.4	-112.9103603662258	122.5095326843924
14.41666666666667	-112.807290770441	122.4143392824239
14.43333333333333	-112.7386236192248	122.3561369901247
14.45	-112.7261777949664	122.3575161370035
14.46666666666667	-112.7122221895168	122.3705356656128
14.48333333333333	-112.699665235905	122.3846801468947
14.5	-112.7224933266299	122.4323003913564
14.51666666666667	-112.7142374549569	122.4287822238128
14.53333333333333	-112.6824971583111	122.4098834253646
14.55	-112.6774859830618	122.4145784462282
14.56666666666667	-112.7033172726739	122.4590344197275
14.58333333333333	-112.7683643896942	122.5512573264169
14.6	-112.8330018888964	122.5982610276613
14.61666666666667	-112.8469513882817	122.5861501366573
14.63333333333333	-112.8849544597238	122.6181241815957
14.65	-112.8719711821013	122.6319009986922
14.66666666666667	-112.8600830847861	122.6864232471677
14.68333333333333	-112.8382495201451	122.7079008963512
14.7	-112.7711452586297	122.6450182535469
14.71666666666667	-112.7087157772103	122.5935797799764
14.73333333333333	-112.6561041670167	122.5636474813711
14.75	-112.633526531618	122.5866102358076
14.76666666666667	-112.6277706669264	122.6370149156327
14.78333333333333	-112.6215763912854	122.6915590778773
14.8	-112.6013779737358	122.7117347465949
14.81666666666667	-112.5882404262791	122.7232155152495
14.83333333333333	-112.5752567669429	122.7345925103818
14.85	-112.5537177290658	122.7565102167216
14.86666666666667	-112.5382189311832	122.7733120944264
14.88333333333333	-112.5306128362144	122.7822396382729
14.9	-112.5232534289149	122.7916211530564
14.91666666666667	-112.545972076176	122.8253761262665
